<svg width="15" height="15" viewBox="0 0 15 15" fill="none" xmlns="http://www.w3.org/2000/svg">
<g clip-path="url(#clip0_333_2179)">
<path d="M14.9945 1.56227C14.9025 0.669129 14.1621 0.000483824 13.2626 0C9.42224 0 5.5824 0 1.74208 0.000967648C1.63707 0.000967648 1.53013 0.00870883 1.42851 0.0285456C0.57779 0.191111 0 0.894591 0 1.76015C0 3.67416 0 5.58817 0 7.50218C0 9.41231 0 11.3225 0.000967823 13.2326C0.000967823 13.3298 0.00822649 13.4276 0.0203243 13.5248C0.131624 14.3555 0.869589 14.9995 1.70917 15C5.5703 15 9.43192 15 13.293 14.9995C13.3593 14.9995 13.4247 14.9956 13.491 14.9884C14.3393 14.8887 14.9988 14.148 14.9988 13.294C15.0003 9.43263 15.0003 5.57172 14.9993 1.7108C15.0003 1.66048 15.0013 1.61162 14.9945 1.56227ZM7.50014 4.61665C9.09415 4.61617 10.3843 5.90411 10.3862 7.49927C10.3881 9.09347 9.09995 10.3838 7.50498 10.3848C5.90711 10.3853 4.61506 9.09396 4.617 7.49734C4.61893 5.90749 5.91001 4.61665 7.50014 4.61665ZM13.2737 6.42567C13.2737 8.49692 13.2737 10.5687 13.2737 12.6414C13.2737 13.0313 13.0366 13.2708 12.6461 13.2708C9.44111 13.2708 6.23617 13.2708 3.03074 13.2708C2.79991 13.2708 2.57054 13.2713 2.33923 13.2708C1.97775 13.2703 1.7324 13.0245 1.7324 12.6636C1.73192 10.5822 1.7324 8.50079 1.7324 6.41889C1.7324 6.39809 1.7324 6.3768 1.7324 6.35213C2.16841 6.35213 2.59909 6.35213 3.03412 6.35213C2.74281 7.52734 2.87637 8.65174 3.45174 9.71519C3.87226 10.4912 4.47521 11.0946 5.24415 11.5286C6.76266 12.3854 8.65185 12.3046 10.0978 11.3166C10.9001 10.768 11.4769 10.0384 11.821 9.12928C12.1631 8.22211 12.2076 7.29607 11.9686 6.35019C12.4046 6.35019 12.8343 6.35019 13.2727 6.35019C13.2737 6.37583 13.2737 6.40051 13.2737 6.42567ZM13.2737 4.0259C13.2727 4.367 13.0216 4.61568 12.679 4.61617C12.6746 4.61617 12.6698 4.61617 12.6673 4.61617C12.3896 4.61617 12.1099 4.61617 11.8302 4.61617C11.5456 4.61617 11.2601 4.61665 10.9746 4.61568C10.646 4.61568 10.3905 4.37038 10.3886 4.04187C10.3847 3.4637 10.3847 2.88553 10.3886 2.30832C10.3905 1.97594 10.6451 1.73257 10.9795 1.73209C11.5485 1.73161 12.1162 1.73161 12.6843 1.73209C13.0211 1.73257 13.2732 1.98271 13.2742 2.32139C13.2747 2.89037 13.2747 3.45789 13.2737 4.0259Z" fill="black"/>
</g>
<defs>
<clipPath id="clip0_333_2179">
<rect width="15" height="15" fill="white"/>
</clipPath>
</defs>
</svg>
